<svg id="Capa_1" data-name="Capa 1" xmlns="http://www.w3.org/2000/svg" viewBox="0 0 428.38 87.97"><defs><style>.cls-1{fill:#fff;}.cls-2{fill:#7080ef;}</style></defs><path class="cls-1" d="M10.28,2.5C3.38,6,.48,10.7.38,18.6c0,4.8.5,6.8,2.4,9.5a20.22,20.22,0,0,0,12,8.4l3.2.7-1.9-3.9a27.35,27.35,0,0,0-4.6-6.2,16.38,16.38,0,0,1-3.6-5.7C6,15.7,10.48,8.5,16.38,8c4.8-.5,6.8.2,10.8,3.9,4.2,3.8,8.5,6.6,9.3,5.9.9-1-1.9-8-4.3-10.9C29,3.2,22.68.1,18.28,0,16.68,0,13.08,1.1,10.28,2.5Z"/><path class="cls-1" d="M63.58,1.4a17.63,17.63,0,0,0-10.3,9.3c-1.5,3.6-1.8,7.3-.6,7.3.4,0,3.4-2.3,6.7-5,5.1-4.3,6.5-5,10.1-5,7.7,0,13.1,7.3,10.5,14.2a27.56,27.56,0,0,1-4.4,6.5A38.88,38.88,0,0,0,71,34.8c-1.2,2.3-1.2,2.4,2.1,1.7,8.2-1.7,14.8-9.7,14.8-18,0-5.4-3.5-12.2-7.9-15.1C75.38.4,68.58-.5,63.58,1.4Z"/><path class="cls-1" d="M15.08,16.3l-2.2,2.3,4.5,4.4c6.1,6,8.9,12.7,8.8,21.5,0,8.3-2.4,14-8.5,21l-4.1,4.6,2.3,2.4,2.3,2.4,5.2-4.6c6.6-5.8,12.3-8.2,20.1-8.2,8.5-.1,14.5,2.2,21,8.2l5.5,5,2.5-2.4L75,70.4,70.78,66c-11.9-12.5-12.3-29.9-.8-42.4l4.8-5.3L72.38,16,70,13.7,65.18,18c-7.3,6.5-12.4,8.5-21.3,8.4S31.28,24.9,24,18.7A41.6,41.6,0,0,0,17.9,14C17.48,14,16.28,15,15.08,16.3Z"/><path class="cls-1" d="M312.18,20.5c-4.4,1.9-7.3,6.9-7.3,12.7s2.6,9.2,10.2,13.2,8.8,5.4,8.8,9.2S321,62,316.28,62c-3.4,0-8.4-3.3-8.4-5.6,0-3.1-1.9-1.1-2.5,2.7-1,5.6.1,6.4,9.4,6.4,6.9,0,8.1-.3,11.4-2.8,4.7-3.6,5.9-5.8,5.9-11.4,0-6-2.3-9-9.8-13-5.7-3-10.4-7.3-10.4-9.4,0-.5,1.1-2.1,2.5-3.4,3.2-3.3,7.2-3.2,10.7.2,3.1,3,3.5,2.9,4.4-1.4.5-2.7.3-3.1-2.7-4.2A22.81,22.81,0,0,0,312.18,20.5Z"/><path class="cls-2" d="M380.28,38.5c-4.2,10.4-8.5,20.7-9.6,22.7l-1.8,3.8h3.3c3.2,0,3.4-.2,5.3-6.3l2-6.2,8.1-.3,8-.3,2.1,6.3,2,6.3,5.7.3c3.1.2,5.5-.1,5.4-.5-1.2-2.5-16.7-42-17.1-43.2-.2-.8-1.6-1.5-3.1-1.5C388.08,19.4,387.58,20.3,380.28,38.5Zm10.9,2,2.6,7.5h-6c-5.4,0-6-.2-5.5-1.8,3.3-8.7,5.2-13.2,5.7-13.2C388.28,33,389.68,36.4,391.18,40.5Z"/><path class="cls-1" d="M111.38,42.5V65h10.5V44h7.3c7,0,7.2-.1,7.2-2.5s-.2-2.5-7.2-2.5h-7.3V24.9l7.3.2c7.1.2,7.2.2,7.5-2.4L137,20H111.4Z"/><path class="cls-1" d="M145.38,42.5V65h25.5l-.2-2.5c-.2-2.4-.5-2.5-7.5-2.5s-7.3-.1-7.9-2.7c-.4-1.4-.4-10.4-.1-20l.6-17.3h-10.4Z"/><path class="cls-1" d="M174.88,20.4c0,.2,3.2,6.4,7.1,13.7l7.1,13.4-.6,8.7-.7,8.8h11.1V44l6.5-11.6c3.6-6.4,6.5-11.8,6.5-12s-1.2-.4-2.8-.4c-2.5,0-3.2.9-7.5,9.5-2.6,5.2-5.1,9.5-5.6,9.5s-2.8-4.3-5.2-9.5l-4.4-9.5h-5.7C177.48,20,174.88,20.2,174.88,20.4Z"/><path class="cls-1" d="M215.28,21.5c.6,1.6,7.9,26.7,11,37.7,1.6,5.6,1.7,5.8,5.2,5.8,1.9,0,3.6-.6,3.8-1.3s2.8-7.9,5.7-16.1c6-17.1,4.9-17.4,11.5,3.4l4.2,13.5,3.4.3,3.3.3L271,42.5,278.6,20h-2.8c-1.8,0-2.9.6-3.3,1.7-4.9,17.5-9,30.2-9.6,29.8-.3-.2-2.9-7.4-5.6-16l-4.9-15.6-3.4.3-3.4.3-5.3,15.9c-3,8.7-5.5,16.1-5.7,16.3s-2.4-7.1-4.7-16.2L225.58,20h-5.5C215.58,20,214.78,20.3,215.28,21.5Z"/><path class="cls-1" d="M285.68,42.5l-.3,22.5h10.5V20H286Z"/><path class="cls-1" d="M339.88,42.5V65h25V62.5c0-2.4-.2-2.5-7.5-2.5h-7.5V44h7.5c7.3,0,7.5-.1,7.5-2.5s-.2-2.5-7.5-2.5h-7.5V25h7.5c7.3,0,7.5-.1,7.5-2.5V20h-25Z"/><path class="cls-2" d="M418.38,42.5V65h10V20h-10Z"/><path class="cls-1" d="M9.38,54.3a17.83,17.83,0,0,0,0,31.4c10.2,5.8,24-.1,26.5-11.3.8-3.2.7-3.4-1.3-2.8-1.2.4-4.4,2.6-7.1,5-4.1,3.7-5.5,4.4-9.1,4.4-5.3,0-9.1-2.8-10.6-7.8-1.3-4.6-.3-7.7,4.4-12.9a39.48,39.48,0,0,0,4.6-6.1c1.1-2,.9-2.2-1.1-2.2A16.25,16.25,0,0,0,9.38,54.3Z"/><path class="cls-1" d="M70.88,53.2c0,.8,2,3.8,4.5,6.7,6.7,7.9,7.1,12.6,1.5,18.2-4.6,4.7-9.2,4.1-16.9-2.1-3.4-2.8-6.7-5-7.2-5-1.5,0-1,3.8,1,7.8,2.8,5.3,8.1,8.5,14.9,9s11.1-1.6,15.7-7.2c2.7-3.4,3-4.5,3-10.6s-.3-7.2-3.1-10.7a17.69,17.69,0,0,0-10.6-6.8C71.58,52,70.88,52.2,70.88,53.2Z"/></svg>